<mxfile host="Electron" modified="2024-06-07T08:50:28.135Z" agent="Mozilla/5.0 (Windows NT 10.0; Win64; x64) AppleWebKit/537.36 (KHTML, like Gecko) draw.io/21.7.5 Chrome/114.0.5735.289 Electron/25.8.1 Safari/537.36" etag="728-0F298GujSjbJ1XIt" version="21.7.5" type="device">
  <diagram name="Page-1" id="G1Jd5vgfMnomTi_0zEkz">
    <mxGraphModel dx="1098" dy="948" grid="1" gridSize="10" guides="1" tooltips="1" connect="1" arrows="1" fold="1" page="1" pageScale="1" pageWidth="1169" pageHeight="827" math="0" shadow="0">
      <root>
        <mxCell id="0" />
        <mxCell id="1" parent="0" />
        <mxCell id="xwjZp-rYNCA6-QiX0pd9-3" value="" style="edgeStyle=orthogonalEdgeStyle;rounded=0;orthogonalLoop=1;jettySize=auto;html=1;" edge="1" parent="1" source="xwjZp-rYNCA6-QiX0pd9-1" target="xwjZp-rYNCA6-QiX0pd9-2">
          <mxGeometry relative="1" as="geometry" />
        </mxCell>
        <mxCell id="xwjZp-rYNCA6-QiX0pd9-1" value="System Name" style="rounded=0;whiteSpace=wrap;html=1;" vertex="1" parent="1">
          <mxGeometry x="500" y="460" width="120" height="60" as="geometry" />
        </mxCell>
        <mxCell id="xwjZp-rYNCA6-QiX0pd9-2" value="External System Name" style="rounded=0;whiteSpace=wrap;html=1;" vertex="1" parent="1">
          <mxGeometry x="700" y="460" width="120" height="60" as="geometry" />
        </mxCell>
      </root>
    </mxGraphModel>
  </diagram>
</mxfile>
